<?xml version="1.0" standalone="no"?>
<!DOCTYPE svg PUBLIC "-//W3C//DTD SVG 20010904//EN"
 "http://www.w3.org/TR/2001/REC-SVG-20010904/DTD/svg10.dtd">
<svg version="1.0" xmlns="http://www.w3.org/2000/svg"
 width="771.000000pt" height="310.000000pt" viewBox="0 0 771.000000 310.000000"
 preserveAspectRatio="xMidYMid meet">

<g transform="translate(0.000000,310.000000) scale(0.100000,-0.100000)"
fill="#000000" stroke="none">
<path d="M20 1570 l0 -1510 410 0 410 0 2 1093 3 1092 408 2 407 2 2 -1077 c0
-592 1 -1085 0 -1094 -2 -17 24 -18 413 -18 l415 0 0 1095 0 1095 410 0 410 0
0 -1095 0 -1095 2198 0 2197 0 0 410 0 410 -1647 0 -1648 0 0 550 0 550 1648
0 1647 0 0 410 0 410 -1647 0 -1648 0 0 140 0 140 -2195 0 -2195 0 0 -1510z"/>
</g>
</svg>
